<svg xmlns="http://www.w3.org/2000/svg" x="0px" y="0px"
width="28" height="28"
viewBox="0 0 172 172"
style=" fill:#000000;"><defs><linearGradient x1="67.1875" y1="14.10938" x2="67.1875" y2="156.36413" gradientUnits="userSpaceOnUse" id="color-1_44001_gr1"><stop offset="0" stop-color="#727272"></stop><stop offset="1" stop-color="#767676"></stop></linearGradient><linearGradient x1="67.1875" y1="14.10938" x2="67.1875" y2="156.36413" gradientUnits="userSpaceOnUse" id="color-2_44001_gr2"><stop offset="0" stop-color="#727272"></stop><stop offset="1" stop-color="#767676"></stop></linearGradient><linearGradient x1="45.6875" y1="14.10938" x2="45.6875" y2="156.36413" gradientUnits="userSpaceOnUse" id="color-3_44001_gr3"><stop offset="0" stop-color="#727272"></stop><stop offset="1" stop-color="#767676"></stop></linearGradient><linearGradient x1="115.5625" y1="64.5" x2="115.5625" y2="107.5" gradientUnits="userSpaceOnUse" id="color-4_44001_gr4"><stop offset="0" stop-color="#aaaaaa"></stop><stop offset="1" stop-color="#aeaeae"></stop></linearGradient></defs><g fill="none" fill-rule="nonzero" stroke="none" stroke-width="1" stroke-linecap="butt" stroke-linejoin="miter" stroke-miterlimit="10" stroke-dasharray="" stroke-dashoffset="0" font-family="none" font-weight="none" font-size="none" text-anchor="none" style="mix-blend-mode: normal"><path d="M0,172v-172h172v172z" fill="none"></path><g><path d="M104.8125,155.875h-75.25c-7.40944,0 -13.4375,-6.02806 -13.4375,-13.4375v-112.875c0,-7.40944 6.02806,-13.4375 13.4375,-13.4375h75.25c7.40944,0 13.4375,6.02806 13.4375,13.4375v45.6875h-5.375v-45.6875c0,-4.44513 -3.61738,-8.0625 -8.0625,-8.0625h-75.25c-4.44513,0 -8.0625,3.61737 -8.0625,8.0625v112.875c0,4.44512 3.61737,8.0625 8.0625,8.0625h75.25c4.44512,0 8.0625,-3.61738 8.0625,-8.0625v-45.6875h5.375v45.6875c0,7.40944 -6.02806,13.4375 -13.4375,13.4375z" fill="url(#color-1_44001_gr1)"></path><path d="M102.125,145.125h-69.875c-2.96431,0 -5.375,-2.41069 -5.375,-5.375v-107.5c0,-2.96431 2.41069,-5.375 5.375,-5.375h69.875c2.96431,0 5.375,2.41069 5.375,5.375v43h-5.375v-43h-69.875v107.5h69.875v-43h5.375v43c0,2.96431 -2.41069,5.375 -5.375,5.375z" fill="url(#color-2_44001_gr2)"></path><path d="M48.375,94.557v-11.739c3.12288,-1.11531 5.375,-4.06887 5.375,-7.568c0,-4.44512 -3.61738,-8.0625 -8.0625,-8.0625c-4.44512,0 -8.0625,3.61738 -8.0625,8.0625c0,3.49913 2.25212,6.45269 5.375,7.56531v11.74169c-3.12288,1.11531 -5.375,4.06888 -5.375,7.568c0,4.44512 3.61738,8.0625 8.0625,8.0625c4.44512,0 8.0625,-3.61738 8.0625,-8.0625c0,-3.49912 -2.25212,-6.45269 -5.375,-7.568zM45.6875,72.5625c1.4835,0 2.6875,1.204 2.6875,2.6875c0,1.4835 -1.204,2.6875 -2.6875,2.6875c-1.4835,0 -2.6875,-1.204 -2.6875,-2.6875c0,-1.4835 1.204,-2.6875 2.6875,-2.6875zM45.6875,104.8125c-1.4835,0 -2.6875,-1.204 -2.6875,-2.6875c0,-1.4835 1.204,-2.6875 2.6875,-2.6875c1.4835,0 2.6875,1.204 2.6875,2.6875c0,1.4835 -1.204,2.6875 -2.6875,2.6875z" fill="url(#color-3_44001_gr3)"></path><path d="M154.585,83.79356l-26.45844,-16.15456c-1.92425,-1.17712 -4.50156,0.086 -4.50156,2.20375v10.78225h-45.6875c-1.4835,0 -2.6875,1.204 -2.6875,2.6875v5.375c0,1.4835 1.204,2.6875 2.6875,2.6875h45.6875v10.77956c0,2.11775 2.57731,3.38088 4.50156,2.20644l26.45844,-16.15725c1.72,-1.04812 1.72,-3.35937 0,-4.41019z" fill="url(#color-4_44001_gr4)"></path></g></g></svg>